<svg width="21" height="19" viewBox="0 0 21 19" fill="none" xmlns="http://www.w3.org/2000/svg">
<path d="M20.2706 7.15759C20.2007 6.94798 20.0146 6.79523 19.7906 6.76358L13.4975 5.87339L10.6831 0.322445C10.5829 0.124841 10.3761 -0.000244141 10.1498 -0.000244141C9.9234 -0.000244141 9.71667 0.124841 9.61648 0.322445L6.80193 5.87339L0.508953 6.76358C0.28498 6.79523 0.0988316 6.94798 0.0288921 7.15755C-0.0410871 7.36716 0.0172752 7.59722 0.179397 7.75102L4.73292 12.0718L3.65814 18.173C3.61984 18.3902 3.71158 18.6097 3.89472 18.7392C3.99832 18.8125 4.12103 18.8498 4.24434 18.8498C4.33902 18.8498 4.43401 18.8278 4.521 18.7833L10.1497 15.9026L15.7783 18.7832C15.9787 18.8858 16.2214 18.8687 16.4046 18.7392C16.5877 18.6097 16.6795 18.3901 16.6412 18.1729L15.5661 12.0718L20.1201 7.75098C20.2822 7.59722 20.3406 7.36716 20.2706 7.15759Z" fill="#FFCA56"/>
</svg>
