<svg width="11" height="9" viewBox="0 0 11 9" fill="none" xmlns="http://www.w3.org/2000/svg">
<path d="M10.877 1.00421C10.4795 1.18942 9.97596 1.36326 9.52475 1.42105C9.98362 1.13495 10.7116 0.539053 10.877 0C10.4483 0.264789 9.67305 0.547579 9.1673 0.649895C8.76342 0.199895 8.18735 0 7.54908 0C6.32302 0 5.46793 1.09184 5.46793 2.36842V3.31579C3.6649 3.31579 1.90694 1.87247 0.812955 0.473684C0.615144 0.82624 0.511292 1.22825 0.5123 1.63753C0.5123 2.49916 1.26552 3.37358 1.86187 3.78947C1.49811 3.77763 0.809349 3.48584 0.509595 3.31579V3.34279C0.509595 4.464 1.2583 5.22521 2.27296 5.43742C2.0877 5.49095 1.86187 5.68421 0.992807 5.68421C1.27498 6.60079 2.69352 7.08537 3.6649 7.10526C2.90492 7.72437 1.54994 8.05263 0.509595 8.05263C0.329743 8.05263 0.23238 8.06305 0.0588379 8.04174C1.04059 8.69542 2.41179 9 3.6649 9C7.74741 9 9.9755 5.72305 9.9755 2.66684C9.9755 2.56642 9.97235 2.23011 9.96739 2.13158C10.4037 1.80853 10.5804 1.47032 10.877 1.00421Z" fill="#646464"/>
</svg>
